PathFileType	4	(X/Y/Z)	OpenSim_Sub08_EMGStiffKnee_Accel.trc
DataRate	CameraRate	NumFrames	NumMarkers	Units	OrigDataRate	OrigDataStartFrame	OrigNumFrames
100	100	27	8	m	100	2363	6301
Frame#	Time	torso_imu_offset_imu	pelvis_imu_offset_imu	tibia_r_imu_offset_imu	femur_r_imu_offset_imu	tibia_l_imu_offset_imu	femur_l_imu_offset_imu	toes_r_imu_offset_imu	toes_l_imu_offset_imu
				X1	Y1	Z1	X2	Y2	Z2	X3	Y3	Z3	X4	Y4	Z4	X5	Y5	Z5	X6	Y6	Z6	X7	Y7	Z7	X8		Y8	Z8	

2363	23.62000000	9.77710425	1.56207730	4.84540893	8.35124329	0.07931225	5.78162322	6.09014013	6.40795681	0.79509781	10.18839002	1.79895209	2.85495716	9.55478256	0.73212232	-0.48690870	8.21507957	-2.47430024	-1.02520001	-2.61251267	-4.32988793	13.19955589	5.87168824	1.02127617	10.81561906
2364	23.63000000	9.59481461	1.34869159	4.93370016	8.38607975	0.94291753	5.94812734	7.44718593	2.94822456	0.15436654	10.05658552	3.56606632	3.31895167	9.35985460	1.02790332	-0.57854266	7.88578900	-5.01280797	-0.57533436	-1.14285643	-3.44483557	12.59223871	5.88219909	0.62804287	10.73623264
2365	23.64000000	9.19698869	1.11807366	4.88226014	8.35842128	1.36680778	6.01902273	8.15045384	-0.02654796	-0.30643093	10.10250712	5.09045208	3.56531365	9.72419974	-0.92413941	-0.56228344	8.33806960	-5.83585047	-0.37979056	-0.61571908	-4.00319413	9.95229035	6.47252400	0.59472820	10.47451009
2366	23.65000000	9.10462169	0.90574916	4.83136598	8.26820629	1.42408156	6.22183413	8.47481166	-1.54236604	1.12021639	10.23101673	5.66281677	3.79901442	9.69943906	-2.95547103	-0.49557919	9.38242505	-5.09588027	-0.34795589	-0.81452881	-3.17275291	7.69311191	5.71309475	0.62139708	10.92817540
2367	23.66000000	9.21472635	0.86663961	4.85890431	8.05516526	1.05504087	6.48407983	8.68100263	-2.14395804	2.51129746	10.34358125	5.37809975	3.85437656	9.65442205	-3.43188540	-0.19270277	10.26417387	-3.10499175	-0.52703688	2.93470678	-3.49786072	6.99550004	5.78242158	0.29762422	10.78175127
2368	23.67000000	9.17145409	0.88699250	4.90055336	7.79433836	0.26554611	6.54949422	8.38884667	-2.47019315	2.71124503	10.21666050	4.66098868	3.67802121	9.53052841	-2.77945074	0.10628662	10.60731592	-0.87115048	-0.76606587	5.38811438	-4.10302644	6.48532056	5.92266820	0.09210722	10.78854406
2369	23.68000000	8.99988166	0.94812440	4.92714472	7.67130007	-0.50772185	6.42310988	8.11241565	-1.67035266	2.35613795	9.90652026	3.78602684	3.52748762	9.88893189	-1.89943499	0.15141722	10.36587042	0.40102819	-1.08888910	5.74521222	-5.41266707	5.45651034	6.02241349	-0.13535900	10.54168333
2370	23.69000000	8.75301946	1.03867245	4.65676446	7.47337630	-1.05891391	6.27540416	8.48084269	-0.06479987	1.57809464	9.61846070	2.97067351	3.19092577	10.22619350	-1.03731843	0.26447743	10.07333099	0.78066811	-1.63544000	5.21180428	-5.90295512	5.12039856	5.49303522	-0.12253679	10.94860057
2371	23.70000000	8.69601592	1.11767866	4.64070595	7.22749114	-1.31365507	6.07973929	9.14615943	1.79602476	-0.17485869	9.28276911	2.33291404	2.59874366	10.14842844	-0.67736905	0.04331168	9.79914839	0.75935271	-2.34800048	4.48970804	-3.36047492	6.29377623	5.52752122	0.27166552	10.94227302
2372	23.71000000	8.75635639	1.24090266	4.51225033	7.04873294	-1.36412012	5.89371129	10.04583024	3.28183517	-1.73830201	8.62848376	1.87031041	2.08051487	9.62811104	-0.98919385	-0.39426833	9.56208363	0.77560492	-2.59312055	4.80550662	-3.00654787	7.80648811	5.76294846	0.43750181	10.76595842
2373	23.72000000	8.69684162	1.16944881	4.39328043	6.93941027	-1.15853644	5.80895372	10.58691264	4.82703415	-0.22661263	8.09246224	1.53270960	1.94958393	9.57118694	-1.42353113	-0.73187097	9.43735388	0.86091587	-2.31087548	5.39345898	-5.54874150	7.88328070	5.73576882	0.60856640	10.68777928
2374	23.73000000	8.57160052	1.28069921	4.34553361	6.92438030	-0.72583799	5.66172306	10.19145698	4.75082006	0.97290613	7.78305012	1.54865748	1.79845584	9.85728397	-1.22036843	-0.72781246	9.31368747	1.07080085	-1.94887408	5.10281541	-3.81964646	8.82899809	6.06067997	0.75318106	10.47011206
2375	23.74000000	8.54812490	1.42770396	4.28219665	7.11951091	-0.31965197	5.26221514	9.18795617	2.67397066	0.58269892	7.72166483	1.64792812	1.62956829	9.64960392	-0.72298615	-0.50098692	8.99296878	1.56734547	-1.73282842	4.59230323	-1.62543691	9.10579328	5.83364954	0.61831124	10.63127334
2376	23.75000000	8.58792785	1.54652555	4.23493078	7.36532266	-0.05400384	4.82733868	8.57413832	0.30662100	1.14252457	7.78121786	1.56462439	1.60315889	9.59529520	-0.04502344	-0.26594381	8.74147107	2.12968218	-1.68695684	4.15202264	0.06963880	9.22215847	5.94994296	0.63864690	10.38577480
2377	23.76000000	8.54813864	1.55922795	4.22034037	7.57955078	0.00651337	4.57604354	8.52172875	-1.97503093	1.79056814	7.93898220	1.33647119	1.75176764	9.40487927	-0.36699275	0.11451167	8.72927870	2.74351686	-1.73463376	4.52381344	-0.07462876	9.31977516	5.67375243	0.66483180	10.68576525
2378	23.77000000	8.57512370	1.60251873	4.21463362	7.75160479	-0.22582280	4.45195138	8.81518968	-3.20849704	1.60918553	8.12585884	0.97912678	1.88151743	9.37712096	-1.02399711	0.15766236	8.91513108	3.17502883	-1.78253551	4.51246602	-0.81108953	9.37432268	6.21983695	0.55184007	10.36250403
2379	23.78000000	8.74309283	1.59000956	4.22773283	7.89789190	-0.60426570	4.38615523	9.13071626	-2.85533344	1.11972596	8.36439061	0.64851427	2.00707849	9.53029655	-1.43426585	-0.00683945	9.34519411	3.24962546	-1.75538611	4.50108020	-1.47602919	9.80397663	5.40877447	0.60795557	10.90784457
2380	23.79000000	8.79856857	1.62665711	4.33341448	8.08683822	-0.97179121	4.46058820	9.69834553	-1.22215301	0.94661845	8.61044019	0.35933566	1.94022313	9.68307265	-1.87473867	0.04525068	9.67154498	2.82870045	-1.49078709	4.57810740	-2.86816210	9.80992025	5.72304695	0.85487754	10.75773537
2381	23.80000000	8.89087355	1.62890005	4.49818907	8.33296398	-1.32035608	4.51986121	10.33345966	0.61597976	1.15580359	8.52082094	0.04989795	1.90360032	9.57177206	-2.04647001	-0.34733491	9.95351454	2.07439118	-1.11502503	4.21626890	-3.12167694	9.89989910	6.07575480	0.72682281	10.55556079
2382	23.81000000	8.89857967	1.60058628	4.65448921	8.46793406	-1.60149094	4.46125761	10.73039716	2.16618951	1.28890465	8.35637616	-0.15321516	2.08952880	9.74806080	-2.06654171	-0.39528249	9.89415746	1.04321216	-0.81215246	4.20291970	-3.20571680	9.88343356	6.10403799	0.67972610	10.47580160
2383	23.82000000	8.79363106	1.58235311	4.79585670	8.47999855	-1.63694216	4.45927528	10.60999255	2.78902862	1.50893518	8.42362517	-0.07429732	2.39576518	9.71092112	-1.97540766	-0.29947561	9.76226415	0.20905786	-0.62675074	4.51706636	-3.53787106	10.00574782	5.80356981	0.90532283	10.68739202
2384	23.83000000	8.70669050	1.54601476	4.82213147	8.47307443	-1.51041284	4.51644382	10.29825516	2.40845341	1.49004352	8.58703011	0.06444006	2.65201619	9.31087220	-2.00781970	-0.24094398	9.60884981	-0.52488876	-0.54792030	4.73982195	-3.62355540	10.06602285	5.61226594	0.96532082	10.81091466
2385	23.84000000	8.53817540	1.48382889	4.82060884	8.46955648	-1.31482448	4.27294075	10.20123290	1.67445947	1.20859198	8.83988417	0.25357836	2.75599029	9.01050582	-2.02793021	-0.36514426	9.42652778	-1.27006289	-0.48153701	4.61027797	-3.66682668	9.98466558	5.97320332	0.97610751	10.48872559
2386	23.85000000	8.56877737	1.47252409	4.77541978	8.61512588	-1.14550533	4.00363283	10.49257577	1.03833034	0.96300444	9.27506334	0.58819633	2.80444262	8.86110349	-2.37029585	-0.74268519	9.24496236	-1.86207746	-0.62446799	4.68302951	-3.91756466	10.02125096	5.92629874	0.93695482	10.55871692
2387	23.86000000	8.66852178	1.54481249	4.85248312	8.64376862	-0.96370543	3.90972650	10.94811818	0.69869429	0.86838947	9.44456757	0.55503324	2.71719373	9.06800713	-2.90856916	-0.69233875	9.15038298	-1.94356314	-0.98544954	5.16678217	-4.23881573	10.24016060	6.34226141	1.01169764	10.20884810
2388	23.87000000	8.77092172	1.55076139	4.92406806	8.64010132	-0.89672768	3.96913895	11.27783931	0.66350498	0.89339345	9.61043367	0.31762219	2.63061246	9.03332664	-3.14883418	-1.03700318	9.21862386	-1.49563766	-1.29407955	5.54992377	-4.26107089	10.23615504	5.55788908	1.13316498	10.64583324
2389	23.88000000	8.82273643	1.47206927	5.03589176	8.52651376	-0.87146925	4.13761331	11.41987841	0.81928181	0.97253994	9.75062538	0.01104233	2.67990039	9.24462371	-2.77228292	-1.08194787	9.51493384	-0.85905167	-1.62802125	5.56533791	-3.74349557	10.16059248	5.82160458	1.09934947	10.55596557
